# xmcd
#
# Track frame offsets: 
#        182
#        13175
#        24340
#        41597
#        56087
#        70935
#        81935
#        96257
#        110265
#        121697
#        133280
#        143632
#        154717
#        165137
#        176915
#        187695
#        201235
#        214757
#        227520
#        241042
#        255042
#        267162
#        282125
#        296095
#        308290
#
# Disc length: 4285 seconds
#
# Revision: 2
# Processed by: cddbd v1.5.2PL0 Copyright (c) Steve Scherf et al.
# Submitted via: ExactAudioCopy v1.0b3
#
DISCID=4910bb19
DTITLE=Merle Travis - Hoedown Shows and Films
DYEAR=1994
DGENRE=Country
TTITLE0=Got a Boogie Woogie Feelin'
TTITLE1=Kentucky Means Paradise
TTITLE2=Midnight Special
TTITLE3=Delta Dan (Louisiana Boogie Woogie Man)
TTITLE4=Cincinnati Lou
TTITLE5=You'd Better Be There
TTITLE6=Fat Gal
TTITLE7=That's All
TTITLE8=I'll See You in My Dreams
TTITLE9=Answer the Phone
TTITLE10=I Am a Pilgrim
TTITLE11=Talkin' Boogie
TTITLE12=Bayou Baby
TTITLE13=Knee Deep in Trouble
TTITLE14=Put Your Arms Around Me, Honey
TTITLE15=Why Did I Fall for Abner
TTITLE16=When the Bloom Is on the Sage
TTITLE17=Silver Spurs
TTITLE18=Old Chisholm Trail
TTITLE19=The Petticoat Fever
TTITLE20=Lost John
TTITLE21=That Ain't Nothin' But the Moon
TTITLE22=Nine Pound Hammer
TTITLE23=Dark As a Dungeon
TTITLE24=Too Much Sugar for a Dime
EXTD=
EXTT0=
EXTT1=
EXTT2=
EXTT3=
EXTT4=
EXTT5=
EXTT6=
EXTT7=
EXTT8=
EXTT9=
EXTT10=
EXTT11=
EXTT12=
EXTT13=
EXTT14=
EXTT15=
EXTT16=
EXTT17=
EXTT18=
EXTT19=
EXTT20=
EXTT21=
EXTT22=
EXTT23=
EXTT24=
PLAYORDER=
